<svg width="512" height="512" viewBox="0 0 512 512" fill="none" xmlns="http://www.w3.org/2000/svg" role="img" aria-labelledby="logoTitle logoDesc">
  <title id="logoTitle">JC monogram logo</title>
  <desc id="logoDesc">A personal logo for John Chrisley featuring a silver-gray C wrapped around a light J on a dark rounded-square badge.</desc>
  <defs>
    <linearGradient id="jcBg" x1="76" y1="56" x2="428" y2="460" gradientUnits="userSpaceOnUse">
      <stop stop-color="#171A1F"/>
      <stop offset="1" stop-color="#090B0E"/>
    </linearGradient>
    <linearGradient id="jcAccent" x1="126" y1="116" x2="386" y2="396" gradientUnits="userSpaceOnUse">
      <stop stop-color="#F6F8FA"/>
      <stop offset="1" stop-color="#C7CDD7"/>
    </linearGradient>
    <radialGradient id="jcGlow" cx="0" cy="0" r="1" gradientUnits="userSpaceOnUse" gradientTransform="translate(392 128) rotate(134.157) scale(260.384)">
      <stop stop-color="#D7DBE2" stop-opacity="0.2"/>
      <stop offset="1" stop-color="#D7DBE2" stop-opacity="0"/>
    </radialGradient>
    <filter id="jcShadow" x="16" y="24" width="480" height="480" filterUnits="userSpaceOnUse" color-interpolation-filters="sRGB">
      <feFlood flood-opacity="0" result="BackgroundImageFix"/>
      <feColorMatrix in="SourceAlpha" type="matrix" values="0 0 0 0 0 0 0 0 0 0 0 0 0 0 0 0 0 0 127 0" result="hardAlpha"/>
      <feOffset dy="14"/>
      <feGaussianBlur stdDeviation="12"/>
      <feComposite in2="hardAlpha" operator="out"/>
      <feColorMatrix type="matrix" values="0 0 0 0 0.0196078 0 0 0 0 0.0196078 0 0 0 0 0.027451 0 0 0 0.38 0"/>
      <feBlend mode="normal" in2="BackgroundImageFix" result="effect1_dropShadow_0_1"/>
      <feBlend mode="normal" in="SourceGraphic" in2="effect1_dropShadow_0_1" result="shape"/>
    </filter>
  </defs>

  <g filter="url(#jcShadow)">
    <rect x="40" y="40" width="432" height="432" rx="120" fill="url(#jcBg)"/>
    <rect x="40.75" y="40.75" width="430.5" height="430.5" rx="119.25" stroke="#303540" stroke-width="1.5"/>
    <rect x="64" y="64" width="384" height="384" rx="96" fill="url(#jcGlow)"/>

    <path d="M356 153C334.531 140.898 311.051 135 284 135C180.171 135 96 219.171 96 323C96 426.829 180.171 511 284 511C311.924 511 336.561 504.377 359 491"
      transform="translate(0 -67)"
      stroke="url(#jcAccent)"
      stroke-width="34"
      stroke-linecap="round"/>

    <circle cx="312" cy="126" r="15" fill="#F3F5F7"/>
    <path d="M312 162V312C312 363.915 280.39 396 228 396C209.514 396 193.288 392.483 180 385.5"
      stroke="#F3F5F7"
      stroke-width="30"
      stroke-linecap="round"
      stroke-linejoin="round"/>
  </g>
</svg>
